<?xml version="1.0" encoding="UTF-8" standalone="no"?>
<!-- Created with Inkscape (http://www.inkscape.org/) -->

<svg
   xmlns:dc="http://purl.org/dc/elements/1.1/"
   xmlns:cc="http://creativecommons.org/ns#"
   xmlns:rdf="http://www.w3.org/1999/02/22-rdf-syntax-ns#"
   xmlns:svg="http://www.w3.org/2000/svg"
   xmlns="http://www.w3.org/2000/svg"
   xmlns:sodipodi="http://sodipodi.sourceforge.net/DTD/sodipodi-0.dtd"
   xmlns:inkscape="http://www.inkscape.org/namespaces/inkscape"
   width="250.67184"
   height="253.09328"
   id="svg3077"
   version="1.1"
   inkscape:version="0.91 r13725"
   sodipodi:docname="family-155562.svg"
   inkscape:export-filename="C:\Users\Giuseppe\Desktop\family-155562.png"
   inkscape:export-xdpi="90"
   inkscape:export-ydpi="90">
  <defs
     id="defs3079">
    <filter
       inkscape:collect="always"
       id="filter3842"
       color-interpolation-filters="sRGB">
      <feGaussianBlur
         inkscape:collect="always"
         stdDeviation="122.83405"
         id="feGaussianBlur3844" />
    </filter>
  </defs>
  <sodipodi:namedview
     id="base"
     pagecolor="#ffffff"
     bordercolor="#666666"
     borderopacity="1.0"
     inkscape:pageopacity="0.0"
     inkscape:pageshadow="2"
     inkscape:zoom="0.86816406"
     inkscape:cx="-122.24225"
     inkscape:cy="36.06295"
     inkscape:document-units="px"
     inkscape:current-layer="layer1"
     showgrid="false"
     fit-margin-top="0"
     fit-margin-left="0"
     fit-margin-right="0"
     fit-margin-bottom="0"
     inkscape:window-width="1858"
     inkscape:window-height="1058"
     inkscape:window-x="54"
     inkscape:window-y="-8"
     inkscape:window-maximized="1" />
  <g
     inkscape:label="Layer 1"
     inkscape:groupmode="layer"
     id="layer1"
     transform="translate(-282.4211,-315.33185)">
    <g
       id="g3818"
       style="fill:#24221c;filter:url(#filter3842)"
       transform="matrix(0.04577215,0,0,0.04577215,628.75725,461.3937)">
      <path
         sodipodi:nodetypes="ccccc"
         inkscape:connector-curvature="0"
         id="path3820"
         d="m -7271.7239,-2140.4197 c 999.9643,1234.90746 1548.9023,1180.81782 2410.8762,-521.2706 -858.8391,2700.568817 -295.1514,3905.8855 -221.54,4691.4347 l -1928.7009,-39.0952 c 0,0 882.3247,-1272.35857 -260.6353,-4131.0689 z"
         style="fill:#24221c;fill-opacity:1;fill-rule:evenodd;stroke:none" />
      <path
         style="fill:#24221c;fill-opacity:1;fill-rule:evenodd;stroke:none"
         d="m -4795.6889,-2166.4833 c 931.6135,920.494 1445.0765,651.0924 2410.8761,-573.3976 -1931.1484,2537.55583 43.8197,3555.83463 -26.0635,4769.6253 l -2358.7491,0 c 254.3111,-1336.34976 1435.1064,-1569.92533 -26.0635,-4196.2277 z"
         id="path3822"
         inkscape:connector-curvature="0"
         sodipodi:nodetypes="ccccc" />
      <path
         sodipodi:type="arc"
         style="fill:#24221c;fill-opacity:1;fill-rule:evenodd;stroke:none"
         id="path3824"
         sodipodi:cx="-3531.6079"
         sodipodi:cy="-2557.4363"
         sodipodi:rx="547.33405"
         sodipodi:ry="547.33405"
         d="m -2984.2739,-2557.4363 a 547.33405,547.33405 0 0 1 -547.334,547.3341 547.33405,547.33405 0 0 1 -547.3341,-547.3341 547.33405,547.33405 0 0 1 547.3341,-547.334 547.33405,547.33405 0 0 1 547.334,547.334 z"
         transform="matrix(0.85714285,0,0,0.85714285,-713.02363,-235.03041)" />
      <path
         transform="matrix(0.85714285,0,0,0.85714285,-3097.8363,-13.490436)"
         d="m -2984.2739,-2557.4363 a 547.33405,547.33405 0 0 1 -547.334,547.3341 547.33405,547.33405 0 0 1 -547.3341,-547.3341 547.33405,547.33405 0 0 1 547.3341,-547.334 547.33405,547.33405 0 0 1 547.334,547.334 z"
         sodipodi:ry="547.33405"
         sodipodi:rx="547.33405"
         sodipodi:cy="-2557.4363"
         sodipodi:cx="-3531.6079"
         id="path3826"
         style="fill:#24221c;fill-opacity:1;fill-rule:evenodd;stroke:none"
         sodipodi:type="arc" />
      <path
         style="fill:#24221c;fill-opacity:1;fill-rule:evenodd;stroke:none"
         d="m -7271.7239,-2140.4197 c 999.9643,1234.90746 1548.9023,1180.81782 2410.8762,-521.2706 -858.8391,2700.568817 -295.1514,3905.8855 -221.54,4691.4347 l -1928.7009,-39.0952 c 0,0 882.3247,-1272.35857 -260.6353,-4131.0689 z"
         id="path3828"
         inkscape:connector-curvature="0"
         sodipodi:nodetypes="ccccc" />
      <g
         id="g3830"
         transform="translate(169.41292,0)"
         style="fill:#24221c">
        <path
           style="fill:#24221c;fill-opacity:1;fill-rule:evenodd;stroke:none"
           d="m -5564.5629,919.86084 c 246.7517,243.80646 382.75,172.45146 638.5563,-151.8729 -511.4933,672.10926 11.6063,941.81556 -6.9033,1263.30596 l -624.7497,0 c 67.3581,-353.952 380.1092,-415.818 -6.9033,-1111.43306 z"
           id="path3832"
           inkscape:connector-curvature="0"
           sodipodi:nodetypes="ccccc" />
        <path
           sodipodi:type="arc"
           style="fill:#24221c;fill-opacity:1;fill-rule:evenodd;stroke:none"
           id="path3834"
           sodipodi:cx="-3531.6079"
           sodipodi:cy="-2557.4363"
           sodipodi:rx="547.33405"
           sodipodi:ry="547.33405"
           d="m -2984.2739,-2557.4363 a 547.33405,547.33405 0 0 1 -547.334,547.3341 547.33405,547.33405 0 0 1 -547.3341,-547.3341 547.33405,547.33405 0 0 1 547.3341,-547.334 547.33405,547.33405 0 0 1 547.334,547.334 z"
           transform="matrix(0.227027,0,0,0.227027,-4483.2084,1431.4347)" />
      </g>
      <g
         id="g3836"
         style="fill:#24221c"
         transform="translate(-273.66703,-39.09529)">
        <path
           transform="matrix(0.3057915,0,0,0.3057915,-3124.1816,1353.7085)"
           d="m -2984.2739,-2557.4363 a 547.33405,547.33405 0 0 1 -547.334,547.3341 547.33405,547.33405 0 0 1 -547.3341,-547.3341 547.33405,547.33405 0 0 1 547.3341,-547.334 547.33405,547.33405 0 0 1 547.334,547.334 z"
           sodipodi:ry="547.33405"
           sodipodi:rx="547.33405"
           sodipodi:cy="-2557.4363"
           sodipodi:cx="-3531.6079"
           id="path3838"
           style="fill:#24221c;fill-opacity:1;fill-rule:evenodd;stroke:none"
           sodipodi:type="arc" />
        <path
           style="fill:#24221c;fill-opacity:1;fill-rule:evenodd;stroke:none"
           d="m -4613.2442,594.91208 c 356.7441,440.56162 552.5814,421.26472 860.0964,-185.96681 -306.3967,963.44623 -105.2973,1393.45113 -79.0359,1673.70103 l -688.077,-13.9474 c 0,0 314.7752,-453.9226 -92.9835,-1473.78682 z"
           id="path3840"
           inkscape:connector-curvature="0"
           sodipodi:nodetypes="ccccc" />
      </g>
    </g>
    <path
       sodipodi:nodetypes="ccccc"
       inkscape:connector-curvature="0"
       id="path3783"
       d="m 295.91481,363.4221 c 45.77052,56.52436 70.89659,54.04856 110.35098,-23.85968 -39.3109,123.61083 -13.50971,178.78077 -10.14036,214.73705 l -88.28078,-1.78948 c 0,0 40.3859,-58.23858 -11.92984,-189.08789 z"
       style="fill:#002255;fill-opacity:1;fill-rule:evenodd;stroke:none" />
    <path
       style="fill:#501644;fill-opacity:1;fill-rule:evenodd;stroke:none"
       d="m 409.24825,362.22911 c 42.64195,42.13299 66.14426,29.8019 110.35098,-26.24564 -88.39281,116.14938 2.00572,162.75819 -1.19298,218.316 l -107.96502,0 c 11.64037,-61.16761 65.68791,-71.85886 -1.19298,-192.07036 z"
       id="rect3010"
       inkscape:connector-curvature="0"
       sodipodi:nodetypes="ccccc" />
    <path
       sodipodi:type="arc"
       style="fill:#501644;fill-opacity:1;fill-rule:evenodd;stroke:none"
       id="path3781"
       sodipodi:cx="-3531.6079"
       sodipodi:cy="-2557.4363"
       sodipodi:rx="547.33405"
       sodipodi:ry="547.33405"
       d="m -2984.2739,-2557.4363 a 547.33405,547.33405 0 0 1 -547.334,547.3341 547.33405,547.33405 0 0 1 -547.3341,-547.3341 547.33405,547.33405 0 0 1 547.3341,-547.334 547.33405,547.33405 0 0 1 547.334,547.334 z"
       transform="matrix(0.03923327,0,0,0.03923327,596.12063,450.63585)" />
    <path
       transform="matrix(0.03923327,0,0,0.03923327,486.96262,460.77621)"
       d="m -2984.2739,-2557.4363 a 547.33405,547.33405 0 0 1 -547.334,547.3341 547.33405,547.33405 0 0 1 -547.3341,-547.3341 547.33405,547.33405 0 0 1 547.3341,-547.334 547.33405,547.33405 0 0 1 547.334,547.334 z"
       sodipodi:ry="547.33405"
       sodipodi:rx="547.33405"
       sodipodi:cy="-2557.4363"
       sodipodi:cx="-3531.6079"
       id="path3785"
       style="fill:#002255;fill-opacity:1;fill-rule:evenodd;stroke:none"
       sodipodi:type="arc" />
    <path
       style="fill:#002255;fill-opacity:1;fill-rule:evenodd;stroke:none"
       d="m 295.91481,363.4221 c 45.77052,56.52436 70.89659,54.04856 110.35098,-23.85968 -39.3109,123.61083 -13.50971,178.78077 -10.14036,214.73705 l -88.28078,-1.78948 c 0,0 40.3859,-58.23858 -11.92984,-189.08789 z"
       id="path3791"
       inkscape:connector-curvature="0"
       sodipodi:nodetypes="ccccc" />
    <path
       sodipodi:nodetypes="ccccc"
       inkscape:connector-curvature="0"
       id="path3859"
       d="m 309.03763,383.10633 c 45.77052,56.52436 57.77377,34.36433 97.22816,-43.54391 -40.37768,120.4105 -13.98282,177.36144 -10.14036,214.73705 l -88.28078,-1.78948 c 0,0 53.50872,-38.55435 1.19298,-169.40366 z"
       style="opacity:0.1;fill:#e3e2db;fill-opacity:1;fill-rule:evenodd;stroke:none" />
    <g
       id="g3801"
       transform="matrix(0.04577215,0,0,0.04577215,636.51164,461.3937)">
      <path
         style="fill:#803300;fill-opacity:1;fill-rule:evenodd;stroke:none"
         d="m -5564.5629,919.86084 c 246.7517,243.80646 382.75,172.45146 638.5563,-151.8729 -511.4933,672.10926 11.6063,941.81556 -6.9033,1263.30596 l -624.7497,0 c 67.3581,-353.952 380.1092,-415.818 -6.9033,-1111.43306 z"
         id="path3787"
         inkscape:connector-curvature="0"
         sodipodi:nodetypes="ccccc" />
      <path
         sodipodi:type="arc"
         style="fill:#803300;fill-opacity:1;fill-rule:evenodd;stroke:none"
         id="path3789"
         sodipodi:cx="-3531.6079"
         sodipodi:cy="-2557.4363"
         sodipodi:rx="547.33405"
         sodipodi:ry="547.33405"
         d="m -2984.2739,-2557.4363 a 547.33405,547.33405 0 0 1 -547.334,547.3341 547.33405,547.33405 0 0 1 -547.3341,-547.3341 547.33405,547.33405 0 0 1 547.3341,-547.334 547.33405,547.33405 0 0 1 547.334,547.334 z"
         transform="matrix(0.227027,0,0,0.227027,-4483.2084,1431.4347)" />
    </g>
    <path
       sodipodi:nodetypes="ccccc"
       inkscape:connector-curvature="0"
       id="path3857"
       d="m 430.12546,385.49229 c 31.12406,9.37691 32.77249,10.67363 62.03515,-13.12282 -50.14091,108.23519 32.07746,125.8274 26.24564,181.93 l -107.96502,0 c 9.34441,-60.88061 66.16452,-46.04561 19.68423,-168.80718 z"
       style="opacity:0.1;fill:#e3e2db;fill-opacity:1;fill-rule:evenodd;stroke:none" />
    <g
       id="g3797"
       style="fill:#225500"
       transform="matrix(0.04577215,0,0,0.04577215,616.23092,459.60422)">
      <path
         transform="matrix(0.3057915,0,0,0.3057915,-3124.1816,1353.7085)"
         d="m -2984.2739,-2557.4363 a 547.33405,547.33405 0 0 1 -547.334,547.3341 547.33405,547.33405 0 0 1 -547.3341,-547.3341 547.33405,547.33405 0 0 1 547.3341,-547.334 547.33405,547.33405 0 0 1 547.334,547.334 z"
         sodipodi:ry="547.33405"
         sodipodi:rx="547.33405"
         sodipodi:cy="-2557.4363"
         sodipodi:cx="-3531.6079"
         id="path3793"
         style="fill:#225500;fill-opacity:1;fill-rule:evenodd;stroke:none"
         sodipodi:type="arc" />
      <path
         style="fill:#225500;fill-opacity:1;fill-rule:evenodd;stroke:none"
         d="m -4613.2442,594.91208 c 356.7441,440.56162 552.5814,421.26472 860.0964,-185.96681 -306.3967,963.44623 -105.2973,1393.45113 -79.0359,1673.70103 l -688.077,-13.9474 c 0,0 314.7752,-453.9226 -92.9835,-1473.78682 z"
         id="path3795"
         inkscape:connector-curvature="0"
         sodipodi:nodetypes="ccccc" />
    </g>
  </g>
  <metadata
     id="metadata33">
    <rdf:RDF>
      <cc:Work>
        <dc:format>image/svg+xml</dc:format>
        <dc:type
           rdf:resource="http://purl.org/dc/dcmitype/StillImage" />
        <cc:license
           rdf:resource="http://creativecommons.org/publicdomain/zero/1.0/" />
        <dc:publisher>
          <cc:Agent
             rdf:about="http://openclipart.org/">
            <dc:title>Open Clip Art Library</dc:title>
          </cc:Agent>
        </dc:publisher>
        <dc:title>Family</dc:title>
        <dc:date>2011-07-02T02:27:45</dc:date>
        <dc:description>One Happy Family</dc:description>
        <dc:source>http://openclipart.org/detail/147937/family-by-gsagri04</dc:source>
        <dc:creator>
          <cc:Agent>
            <dc:title>gsagri04</dc:title>
          </cc:Agent>
        </dc:creator>
        <dc:subject>
          <rdf:Bag>
            <rdf:li>Family</rdf:li>
            <rdf:li>children</rdf:li>
            <rdf:li>clip art</rdf:li>
            <rdf:li>clipart</rdf:li>
            <rdf:li>female</rdf:li>
            <rdf:li>happy</rdf:li>
            <rdf:li>male</rdf:li>
            <rdf:li>png</rdf:li>
            <rdf:li>svg</rdf:li>
          </rdf:Bag>
        </dc:subject>
      </cc:Work>
      <cc:License
         rdf:about="http://creativecommons.org/publicdomain/zero/1.0/">
        <cc:permits
           rdf:resource="http://creativecommons.org/ns#Reproduction" />
        <cc:permits
           rdf:resource="http://creativecommons.org/ns#Distribution" />
        <cc:permits
           rdf:resource="http://creativecommons.org/ns#DerivativeWorks" />
      </cc:License>
    </rdf:RDF>
  </metadata>
</svg>
